<?xml version="1.0" encoding="iso-8859-1"?>
<!-- Generator: Adobe Illustrator 19.1.0, SVG Export Plug-In . SVG Version: 6.00 Build 0)  -->
<svg version="1.1" id="Capa_1" xmlns="http://www.w3.org/2000/svg" xmlns:xlink="http://www.w3.org/1999/xlink" x="0px" y="0px"
	 viewBox="0 0 482.6 482.6" style="enable-background:new 0 0 482.6 482.6;" xml:space="preserve">
<g>
	<path d="M453.65,264.05c-9.6-13.6-9.6-31.8,0-45.4l11.9-17c15.1-21.5,5.4-51.5-19.5-60.1l-19.6-6.7c-15.7-5.4-26.4-20.1-26.7-36.7
		l-0.3-20.7c-0.4-26.3-26-44.8-51.1-37.1l-19.9,6c-15.9,4.9-33.2-0.7-43.2-14l-12.5-16.6c-15.8-21-47.4-21-63.2,0l-12.3,16.6
		c-10,13.3-27.3,18.9-43.2,14l-19.8-6c-25.1-7.7-50.7,10.8-51.1,37.1l-0.3,20.7c-0.3,16.6-10.9,31.3-26.7,36.7l-19.6,6.7
		c-24.9,8.5-34.6,38.5-19.5,60.1l11.9,17c9.6,13.6,9.6,31.8,0,45.4l-11.9,17c-15.1,21.5-5.4,51.5,19.5,60.1l19.6,6.7
		c15.7,5.4,26.4,20.1,26.7,36.7l0.3,20.7c0.4,26.3,26,44.8,51.1,37.1l19.8-6.1c15.9-4.9,33.2,0.7,43.2,14l12.5,16.6
		c15.8,21,47.4,21,63.2,0l12.3-16.5c10-13.3,27.3-18.9,43.2-14l19.8,6c25.1,7.7,50.7-10.8,51.1-37.1l0.3-20.7
		c0.3-16.6,10.9-31.3,26.7-36.7l19.6-6.7c24.9-8.5,34.6-38.5,19.5-60.1L453.65,264.05z M292.75,312.05c-7.8,9.5-18,15.9-29.9,19.2
		c-5.2,1.4-7.5,4.1-7.3,9.5c0.2,5.3,0,10.6,0,15.9c0,4.7-2.4,7.3-7.1,7.4c-5.7,0.1-11.4,0.1-17.1,0c-5-0.1-7.3-2.9-7.4-7.8
		c0-3.9-0.1-7.7-0.1-11.6c-0.1-8.5-0.4-8.9-8.6-10.2c-10.5-1.7-20.8-4.1-30.4-8.7c-7.6-3.7-8.3-5.6-6.2-13.5
		c1.6-5.9,3.2-11.8,5.1-17.6c2.1-6.8,4-7.6,10.2-4.4c10.6,5.5,21.9,8.6,33.8,10.1c7.6,1,15.1,0.2,22.2-2.9
		c13.2-5.8,15.3-21.1,4.1-30.2c-3.8-3.1-8.1-5.4-12.6-7.4c-11.6-5.1-23.6-9-34.5-15.5c-17.7-10.6-29-25.2-27.6-46.7
		c1.5-24.4,15.3-39.6,37.6-47.7c9.2-3.4,9.3-3.2,9.3-12.9c0-3.3,0-6.5,0-9.8c0.2-7.3,1.4-8.5,8.6-8.7c2.2-0.1,4.5,0,6.7,0
		c15.4,0,15.4,0,15.5,15.4c0,10.9,0,10.9,10.9,12.6c8.3,1.3,16.3,3.8,23.9,7.1c4.2,1.9,5.8,4.8,4.5,9.3c-1.9,6.7-3.7,13.3-5.9,19.9
		c-2,6.2-4,7.1-10,4.2c-12-5.8-24.6-8.2-37.9-7.5c-3.5,0.2-6.9,0.7-10.1,2.1c-11.5,5-13.3,17.7-3.6,25.5c4.9,4,10.6,6.8,16.5,9.3
		c10.2,4.2,20.4,8.2,30.1,13.6C306.15,247.15,314.45,285.75,292.75,312.05z"/>
</g>
<g>
</g>
<g>
</g>
<g>
</g>
<g>
</g>
<g>
</g>
<g>
</g>
<g>
</g>
<g>
</g>
<g>
</g>
<g>
</g>
<g>
</g>
<g>
</g>
<g>
</g>
<g>
</g>
<g>
</g>
</svg>
